<?xml version="1.0" encoding="UTF-8"?>
<svg version="1.1" viewBox="0 0 1704 1736" width="1280" height="1280" xmlns="http://www.w3.org/2000/svg">
<path transform="translate(1336,216)" d="m0 0 5 1-3 7-9 10-11 14-10 12-7 9-12 15-9 11-10 13-3 4h-2l-2 4-10 13-2 3h-2l-2 4-11 14-10 12-8 10-11 14-14 17-11 14-13 16-12 15-11 14-9 11-11 13-4 6-11 13-6 8-11 13-7 9-12 15-11 14-14 17-16 20-13 16-11 14-13 16-11 14-13 16-14 17-11 14-9 11-24 30-13 16-8 10-11 14-14 17-11 14-9 11-8 10-13 16-8 10-13 16-24 30-13 16-12 15-9 11-11 14-13 16-8 10-9 11-13 16-11 14-9 11-13 16-20 25-11 14-14 17-11 14-18 22-26 32-11 14-9 11-13 16-11 14-7 9-4 2-1-5 14-25 13-23 21-41 12-24 15-33 18-43 17-46 10-32 9-33 7-32 5-35 2-33v-12l-2-20-6-26-8-22-8-18-8-16-10-18-15-23-11-16-16-21-10-13-13-15-9-11-12-13-7-8-12-13v-2l-3-1-5-6-4-3v-2l-4-2v-2l-3-1-1-5 7 1 22 15 20 14 25 16 28 17 24 13 17 9 29 13 18 7 25 8 25 6 27 4h31l20-4 21-7 27-12 22-12 20-12 24-16 17-12 21-16 13-10 14-11 13-11 10-8 15-13 14-12 12-11 8-7 13-12 8-7 9-9 8-7 10-10 8-7 33-33 8-7 11-11 1-2h2l2-4 35-35 7-8 14-14 7-8 11-11 7-8 14-15 11-12 12-13 9-10 1-2h2l2-4 7-7 7-8 2-3h2l2-4 5-6h2l2-4 5-6h2v-2z"/>
<path transform="translate(1195,481)" d="m0 0h2l-1 7-10 17-15 28-12 22-18 36-13 28-9 20-14 34-8 20-9 26-9 27-10 36-8 36-5 35-2 29v18l2 18 6 25 6 18 10 23 13 25 16 26 11 16 14 19 11 14 9 11 11 13 9 11 13 14 7 8 8 8 7 8 13 13 1 6-5-1-15-10-17-12-15-10-23-15-21-13-25-14-34-17-26-11-25-9-27-7-21-4-20-2h-16l-18 2-19 5-21 8-25 12-25 14-20 13-19 13-17 12-17 13-14 11-17 14-10 8-13 11-14 12-11 10-8 7-14 12-8 8-8 7-5 5-10 9-5 5h-2v2l-8 7-7 7h-2v2h-2v2h-2v2h-2v2h-2v2h-2v2h-2v2h-2v2h-2v2h-2v2h-2v2h-2v2h-2v2h-2v2h-2v2h-2v2h-2v2h-2v2h-2v2h-2v2h-2v2l-8 7-29 29-1 2h-2v2h-2v2h-2l-2 4-22 22-14 16h-2l-2 4-7 8-12 12-1 2h-2l-2 4-10 10-7 8-14 15-18 20-10 11-9 11-4 5-5 3-4-1 1-5 8-10h2l2-4 12-16h2l2-4 4-6h2l2-4 11-14 9-11 13-16 8-10 26-32 8-10 13-16 11-14 9-11 13-16 11-14 9-11 12-15 1-2h2l2-4 11-14 1-2h2l2-4 13-16 11-14 9-11 13-16 11-14 9-11 13-16 11-14 9-11 12-15 9-11 8-11h2l2-4 13-16 11-14 13-16 8-10 11-14 14-17 11-14 18-22 12-15 11-14 11-13 11-14 13-16 8-10 11-14 13-16 12-15 11-14 9-11 11-13 10-13 14-17 13-16 11-14 13-16 11-14 14-17 13-16 11-14 14-17 7-9 12-15 1-2h2l2-4 13-16 11-14 9-11 13-16 11-14 9-11 13-16 9-12 12-14 4-6h2v-2z"/>
</svg>
